<?xml version="1.0" encoding="utf-8"?>
<!-- Generator: Adobe Illustrator 24.0.0, SVG Export Plug-In . SVG Version: 6.00 Build 0)  -->
<svg version="1.1" id="Capa_1" xmlns="http://www.w3.org/2000/svg" xmlns:xlink="http://www.w3.org/1999/xlink" x="0px" y="0px"
	 viewBox="0 0 512 512" style="enable-background:new 0 0 512 512;" xml:space="preserve">
<style type="text/css">
	.st0{fill:#525278;}
</style>
<g>
	<g>
		<path class="st0" d="M186.5,282.5c0-6.4-5.2-11.6-11.6-11.6h-40.6c-6.4,0-11.6,5.2-11.6,11.6V323c0,6.4,5.2,11.6,11.6,11.6h40.6
			c6.4,0,11.6-5.2,11.6-11.6L186.5,282.5L186.5,282.5z"/>
		<path class="st0" d="M287.9,282.5c0-6.4-5.2-11.6-11.6-11.6h-40.6c-6.4,0-11.6,5.2-11.6,11.6V323c0,6.4,5.2,11.6,11.6,11.6h40.6
			c6.4,0,11.6-5.2,11.6-11.6V282.5z"/>
		<path class="st0" d="M389.2,282.5c0-6.4-5.2-11.6-11.6-11.6h-40.6c-6.4,0-11.6,5.2-11.6,11.6V323c0,6.4,5.2,11.6,11.6,11.6h40.6
			c6.4,0,11.6-5.2,11.6-11.6V282.5z"/>
		<path class="st0" d="M186.5,383.8c0-6.4-5.2-11.6-11.6-11.6h-40.6c-6.4,0-11.6,5.2-11.6,11.6v40.5c0,6.4,5.2,11.6,11.6,11.6h40.6
			c6.4,0,11.6-5.2,11.6-11.6L186.5,383.8L186.5,383.8z"/>
		<path class="st0" d="M287.9,383.8c0-6.4-5.2-11.6-11.6-11.6h-40.6c-6.4,0-11.6,5.2-11.6,11.6v40.5c0,6.4,5.2,11.6,11.6,11.6h40.6
			c6.4,0,11.6-5.2,11.6-11.6V383.8z"/>
		<path class="st0" d="M389.2,383.8c0-6.4-5.2-11.6-11.6-11.6h-40.6c-6.4,0-11.6,5.2-11.6,11.6v40.5c0,6.4,5.2,11.6,11.6,11.6h40.6
			c6.4,0,11.6-5.2,11.6-11.6L389.2,383.8L389.2,383.8z"/>
		<path class="st0" d="M461.8,57v61.9c0,28-22.7,50.6-50.7,50.6h-32c-28,0-51-22.6-51-50.6V56.8H183.9v62.2c0,28-23,50.6-51,50.6
			h-32c-28,0-50.7-22.6-50.7-50.6V57C25.8,57.7,5.7,78,5.7,102.9v363c0,25.3,20.5,46.2,45.9,46.2h408.9c25.3,0,45.9-20.9,45.9-46.2
			v-363C506.3,78,486.2,57.7,461.8,57z M446.9,443.2c0,11-8.9,19.8-19.8,19.8h-343c-11,0-19.8-8.9-19.8-19.8V255.7
			c0-11,8.9-19.8,19.8-19.8h343c11,0,19.8,8.9,19.8,19.8L446.9,443.2L446.9,443.2z"/>
		<path class="st0" d="M100.8,136.3h31.6c9.6,0,17.4-7.8,17.4-17.4V17.4c0-9.6-7.8-17.4-17.4-17.4h-31.6c-9.6,0-17.4,7.8-17.4,17.4
			v101.5C83.4,128.5,91.2,136.3,100.8,136.3z"/>
		<path class="st0" d="M378.7,136.3h31.6c9.6,0,17.4-7.8,17.4-17.4V17.4c0-9.6-7.8-17.4-17.4-17.4h-31.6c-9.6,0-17.4,7.8-17.4,17.4
			v101.5C361.3,128.5,369.1,136.3,378.7,136.3z"/>
	</g>
</g>
</svg>
