<?xml version="1.0" encoding="utf-8"?>
<!-- Generator: Adobe Illustrator 24.0.0, SVG Export Plug-In . SVG Version: 6.00 Build 0)  -->
<svg version="1.1" id="Capa_1" xmlns="http://www.w3.org/2000/svg" xmlns:xlink="http://www.w3.org/1999/xlink" x="0px" y="0px"
	 viewBox="0 0 512 512" style="enable-background:new 0 0 512 512;" xml:space="preserve">
<style type="text/css">
	.st0{fill:#525278;}
</style>
<g>
	<path class="st0" d="M256,0C114.8,0,0,114.8,0,256s114.8,256,256,256s256-114.8,256-256S397.2,0,256,0z M256,458.1
		c-111.4,0-202.1-90.7-202.1-202.1S144.6,53.9,256,53.9S458.1,144.6,458.1,256S367.4,458.1,256,458.1z"/>
	<path class="st0" d="M393.4,248.1h-100c-3.6-5.9-8.6-10.9-14.5-14.5V113.4c0-12.7-10.3-22.9-22.9-22.9c-12.7,0-22.9,10.3-22.9,22.9
		v120.2c-12.6,7.7-21,21.6-21,37.5c0,24.2,19.7,43.9,43.9,43.9c15.8,0,29.7-8.4,37.5-21h100c12.7,0,22.9-10.3,22.9-22.9
		S406.1,248.1,393.4,248.1z"/>
</g>
</svg>
