<?xml version="1.0" encoding="utf-8"?>
<!-- Generator: Adobe Illustrator 24.0.0, SVG Export Plug-In . SVG Version: 6.00 Build 0)  -->
<svg version="1.1" id="Capa_1" xmlns="http://www.w3.org/2000/svg" xmlns:xlink="http://www.w3.org/1999/xlink" x="0px" y="0px"
	 viewBox="0 0 512 512" style="enable-background:new 0 0 512 512;" xml:space="preserve">
<style type="text/css">
	.st0{fill:#525278;}
</style>
<g>
	<g>
		<path class="st0" d="M256,0L256,0C153.6,0,71,82.7,71,185c0,35.7,11.4,69.8,27.3,97.8l120.6,208.7c7.6,13.6,22.8,20.5,37.2,20.5
			c14.4,0,28.9-6.8,37.2-20.5L413.8,283c16-28,27.3-61.5,27.3-97.8C441,82.8,358.4,0,256,0z M256,239.7c-37.2,0-67.5-30.4-67.5-67.5
			s30.4-67.5,67.5-67.5s67.5,30.4,67.5,67.5C323.5,209.5,293.2,239.7,256,239.7z"/>
	</g>
</g>
</svg>
