<?xml version="1.0" encoding="utf-8"?>
<!-- Generator: Adobe Illustrator 24.0.0, SVG Export Plug-In . SVG Version: 6.00 Build 0)  -->
<svg version="1.1" id="Capa_1" xmlns="http://www.w3.org/2000/svg" xmlns:xlink="http://www.w3.org/1999/xlink" x="0px" y="0px"
	 viewBox="0 0 512 512" style="enable-background:new 0 0 512 512;" xml:space="preserve">
<style type="text/css">
	.st0{fill:#525278;}
</style>
<path class="st0" d="M260.3,0C121.5,0,8.5,112.9,8.5,251.7c0,43.9,11.5,87.1,33.2,125l-41.3,124c-1,3-0.3,6.2,1.9,8.5
	c1.6,1.7,3.9,2.7,6.2,2.7c0.7,0,1.5-0.1,2.2-0.3l135.4-35.6c35.2,17.9,74.6,27.4,114.2,27.4c138.8,0,251.7-112.9,251.7-251.7
	S399.1,0,260.3,0z M417.3,366l-15,15c-18.9,18.9-40.1,28.6-62.8,28.6l0,0c-30.6,0-63.7-17.5-98.2-52l-87-87
	c-27.2-27.2-43.9-53.6-49.7-78.6c-7-30.3,1.8-58,26.3-82.4l15-15c9.7-9.7,25.3-12,37.4-5.6c22.7,12,46.3,51.4,48.9,55.9
	c4.7,8.3,6.2,16.8,4.1,24.1c-1.6,5.6-5.1,10.1-10.1,13.2c-6.9,5.8-15,13-16.4,14.8c-8.7,12.8-7.7,22.6,3.5,33.8l67.9,67.9
	c11.3,11.3,20.9,12.2,33.9,3.4c1.7-1.3,8.9-9.4,14.7-16.3c4.3-7.1,11.4-11,20-11c5.6,0,11.6,1.7,17.3,4.9c4.5,2.7,43.9,26.2,56,48.9
	C429.5,341.1,427.3,356.1,417.3,366z"/>
</svg>
